<svg width="1139" height="340" xmlns="http://www.w3.org/2000/svg" xmlns:xlink="http://www.w3.org/1999/xlink" xml:space="preserve" overflow="hidden"><defs><clipPath id="clip0"><rect x="1630" y="966" width="1139" height="340"/></clipPath></defs><g clip-path="url(#clip0)" transform="translate(-1630 -966)"><path d="M1781.16 1074 1740.76 1074 1664.63 1185.1 1664.67 1002.29C1664.67 999.771 1662.67 987 1647.38 987 1633.03 986.914 1630.1 999.771 1630.1 1002.29L1630 1306 1664.63 1306 1664.63 1193.74 1746.54 1306 1789 1306 1702.56 1187.84 1781.16 1074Z" fill="#022169" fill-rule="evenodd"/><path d="M1937.74 1074 1885.93 1166.4 1834.27 1074 1795 1074 1868.71 1206.84 1868.71 1306 1903.29 1306 1903.29 1206.84 1977 1074Z" fill="#022169" fill-rule="evenodd"/><path d="M2079.48 1103.03C2101.15 1103.03 2121.33 1113.83 2136.82 1130.11L2157 1101.44C2135.32 1079.26 2108.84 1066.44 2080.16 1066 2018.01 1066 1966 1120.89 1966 1186.29 1966 1251.84 2018.01 1306 2080.71 1306 2113.64 1306 2137.92 1290.87 2157 1271.14L2136.97 1241.75C2121.74 1257.6 2102.25 1269.41 2079.62 1269.41 2039.96 1269.41 2001.13 1233.25 2001.13 1186.43 2001.13 1139.9 2039.41 1103.03 2079.48 1103.03" fill="#022169" fill-rule="evenodd"/><path d="M2346.25 983C2331.67 982.908 2328.93 995.914 2328.93 998.46L2328.92 1220.59 2186.79 1065.77 2185 1065.77 2185 1302.25 2219.94 1302.25 2219.94 1150.89 2362.34 1306 2364 1306 2364 998.46C2364 995.914 2361.78 983 2346.25 983" fill="#022169" fill-rule="evenodd"/><path d="M2458.99 1006.35C2459.35 1018.49 2449.8 1028.63 2437.65 1028.99 2425.51 1029.35 2415.37 1019.8 2415.01 1007.65 2414.65 995.512 2424.2 985.37 2436.35 985.01 2448.49 984.649 2458.63 994.2 2458.99 1006.35" fill="#009FE3" fill-rule="evenodd"/><path d="M2734.24 1024.92C2724.35 1017.88 2722.03 1004.14 2729.08 994.245 2736.12 984.348 2749.85 982.031 2759.75 989.078 2769.66 996.122 2771.97 1009.86 2764.92 1019.76 2757.87 1029.65 2744.14 1031.97 2734.24 1024.92" fill="#F39200" fill-rule="evenodd"/><path d="M2585.64 1264.46C2596.19 1258.88 2609.15 1263.11 2614.6 1273.91 2620.04 1284.71 2615.91 1297.98 2605.36 1303.55 2594.81 1309.12 2581.85 1304.88 2576.4 1294.09 2570.95 1283.29 2575.09 1270.02 2585.64 1264.46" fill="#022169" fill-rule="evenodd"/><path d="M2588.76 980.114C2587.06 983.043 2583.82 984.925 2580.22 984.708 2576.01 984.45 2571.73 984.38 2567.42 984.508 2530.44 985.604 2491.23 1001.02 2473.05 1032.48 2455.92 1062.14 2460.38 1101.05 2475.52 1132.91 2478.31 1138.77 2481.46 1144.39 2484.91 1149.68 2487.69 1153.95 2486.5 1159.69 2482.25 1162.49 2477.99 1165.29 2472.29 1164.09 2469.5 1159.82 2443.5 1119.93 2442.14 1069.55 2465.95 1028.34 2489.76 987.124 2533.98 963.333 2581.35 966.239 2586.43 966.552 2590.29 970.94 2589.98 976.04 2589.89 977.522 2589.45 978.907 2588.76 980.114" fill="#009FE3" fill-rule="evenodd"/><path d="M2490.52 1167C2493.9 1167.12 2497.09 1169.09 2498.6 1172.38 2500.37 1176.24 2502.34 1180.06 2504.5 1183.82 2522.99 1216.07 2555.12 1243.48 2591.36 1244.67 2625.53 1245.79 2657.58 1223.4 2678.39 1194.87 2682.21 1189.62 2685.66 1184.17 2688.67 1178.61 2691.11 1174.11 2696.71 1172.45 2701.18 1174.89 2705.65 1177.34 2707.31 1182.95 2704.88 1187.45 2682.17 1229.4 2638.56 1254.49 2591.08 1252.93 2543.6 1251.37 2501.75 1223.49 2481.85 1180.15 2479.72 1175.5 2481.74 1170 2486.36 1167.86 2487.71 1167.23 2489.13 1166.96 2490.52 1167" fill="#022169" fill-rule="evenodd"/><path d="M2703.97 1160.31C2702.3 1157.36 2702.32 1153.6 2704.33 1150.6 2706.69 1147.08 2708.92 1143.4 2711 1139.6 2728.81 1107.01 2735.41 1065.25 2717.55 1033.61 2700.72 1003.77 2664.97 987.958 2629.87 984.975 2623.42 984.424 2616.98 984.314 2610.69 984.624 2605.6 984.879 2601.27 980.945 2601.01 975.847 2600.76 970.749 2604.68 966.405 2609.78 966.158 2657.28 963.798 2701.33 988.089 2724.72 1029.55 2748.12 1071.01 2746.17 1121.34 2719.66 1160.91 2716.82 1165.15 2711.09 1166.28 2706.85 1163.43 2705.62 1162.6 2704.65 1161.52 2703.97 1160.31" fill="#F39200" fill-rule="evenodd"/></g></svg>